# xmcd CD database file
#
# Track frame offsets:
#	150
#	31807
#	65567
#	89781
#	115845
#	143400
#	171647
#
# Disc length: 2606 seconds
#
# Revision: 0
# Processed by: cddbd v1.5.2PL0 Copyright (c) Steve Scherf et al.
# Submitted via: CDex 1.51
#
DISCID=600a2c07
DTITLE=Various Artist - Yoga Spirit CD4
DYEAR=2003
DGENRE=New Age
TTITLE0=Dust
TTITLE1=The Flower of Wisdom
TTITLE2=The Life of Sunflower
TTITLE3=Maui
TTITLE4=White Moonlight
TTITLE5=Silent Lake
TTITLE6=Sunset
EXTD=YEAR: 2003
EXTT0=
EXTT1=
EXTT2=
EXTT3=
EXTT4=
EXTT5=
EXTT6=
PLAYORDER=
